<svg xmlns="http://www.w3.org/2000/svg" viewBox="0 0 420 195" width="420" height="195">
  <style>
    .wire { stroke:#1a1a1a; stroke-width:2.5; fill:none; stroke-linecap:round; }
    .box  { stroke:#1a1a1a; stroke-width:2; fill:#f5f5f5; }
    .lbl  { font-family:sans-serif; font-size:14px; fill:#1a1a1a; text-anchor:middle; dominant-baseline:middle; }
    .sub  { font-family:sans-serif; font-size:11px; fill:#555; text-anchor:middle; }
  </style>

  <!-- Source (left side) -->
  <line class="wire" x1="45" y1="25" x2="45" y2="165"/>
  <line x1="30" y1="83" x2="60" y2="83" stroke="#1a1a1a" stroke-width="4"/>
  <line x1="34" y1="96" x2="56" y2="96" stroke="#1a1a1a" stroke-width="2"/>
  <text class="sub" x="45" y="68">+</text>
  <text class="sub" x="45" y="130">−</text>
  <text class="sub" x="68" y="89">U</text>

  <!-- Top wire: source(+) into R1 -->
  <line class="wire" x1="45" y1="25" x2="82" y2="25"/>
  <!-- R1 (series resistor) -->
  <rect class="box" x="82" y="13" width="85" height="24" rx="2"/>
  <text class="lbl" x="125" y="25">R<tspan dy="5" font-size="10">1</tspan></text>
  <!-- R1 out → top rail of parallel group -->
  <line class="wire" x1="167" y1="25" x2="365" y2="25"/>

  <!-- T-junction dot: where R2 branches off the top rail -->
  <circle cx="280" cy="25" r="4" fill="#1a1a1a"/>

  <!-- R2 branch (left parallel branch) -->
  <line class="wire" x1="280" y1="25" x2="280" y2="65"/>
  <rect class="box" x="248" y="65" width="64" height="40" rx="2"/>
  <text class="lbl" x="280" y="85">R<tspan dy="5" font-size="10">2</tspan></text>
  <line class="wire" x1="280" y1="105" x2="280" y2="165"/>

  <!-- R3 branch (right parallel branch) -->
  <line class="wire" x1="365" y1="25" x2="365" y2="65"/>
  <rect class="box" x="333" y="65" width="64" height="40" rx="2"/>
  <text class="lbl" x="365" y="85">R<tspan dy="5" font-size="10">3</tspan></text>
  <line class="wire" x1="365" y1="105" x2="365" y2="165"/>

  <!-- Bottom bus: source(−) → R2 bottom → R3 bottom -->
  <line class="wire" x1="45" y1="165" x2="365" y2="165"/>

  <!-- T-junction dot: where R2 meets the bottom bus -->
  <circle cx="280" cy="165" r="4" fill="#1a1a1a"/>

  <!-- Label -->
  <text class="sub" x="215" y="183">Gemischte Schaltung / Mixed Circuit  (R<tspan dy="3" font-size="8">1</tspan><tspan dy="-3"> in Reihe mit R</tspan><tspan dy="3" font-size="8">2</tspan><tspan dy="-3"> ‖ R</tspan><tspan dy="3" font-size="8">3</tspan><tspan dy="-3">)</tspan></text>
</svg>
