<svg xmlns="http://www.w3.org/2000/svg" viewBox="0 0 520 140" width="520" height="140">
  <style>
    .wire { stroke:#1a1a1a; stroke-width:2.5; fill:none; stroke-linecap:round; }
    .box  { stroke:#1a1a1a; stroke-width:2; fill:#f5f5f5; }
    .lbl  { font-family:sans-serif; font-size:14px; fill:#1a1a1a; text-anchor:middle; dominant-baseline:middle; }
    .sub  { font-family:sans-serif; font-size:11px; fill:#555; text-anchor:middle; }
  </style>
  <!-- Battery / Source -->
  <line class="wire" x1="45" y1="25" x2="45" y2="115"/>
  <line x1="30" y1="58" x2="60" y2="58" stroke="#1a1a1a" stroke-width="4"/>
  <line x1="34" y1="70" x2="56" y2="70" stroke="#1a1a1a" stroke-width="2"/>
  <text class="sub" x="45" y="43">+</text>
  <text class="sub" x="45" y="90">−</text>
  <text class="sub" x="70" y="64">U</text>
  <!-- Top wire: source → R1 -->
  <line class="wire" x1="45" y1="25" x2="115" y2="25"/>
  <!-- R1 -->
  <rect class="box" x="115" y="13" width="75" height="24" rx="2"/>
  <text class="lbl" x="152" y="25">R<tspan dy="5" font-size="10">1</tspan></text>
  <!-- R1 → R2 -->
  <line class="wire" x1="190" y1="25" x2="225" y2="25"/>
  <!-- R2 -->
  <rect class="box" x="225" y="13" width="75" height="24" rx="2"/>
  <text class="lbl" x="262" y="25">R<tspan dy="5" font-size="10">2</tspan></text>
  <!-- R2 → R3 -->
  <line class="wire" x1="300" y1="25" x2="335" y2="25"/>
  <!-- R3 -->
  <rect class="box" x="335" y="13" width="75" height="24" rx="2"/>
  <text class="lbl" x="372" y="25">R<tspan dy="5" font-size="10">3</tspan></text>
  <!-- R3 → right corner -->
  <line class="wire" x1="410" y1="25" x2="465" y2="25"/>
  <!-- Right side down -->
  <line class="wire" x1="465" y1="25" x2="465" y2="115"/>
  <!-- Bottom wire -->
  <line class="wire" x1="45" y1="115" x2="465" y2="115"/>
  <!-- Current arrow -->
  <text class="sub" x="255" y="105">→  I</text>
  <!-- Label -->
  <text class="sub" x="255" y="132">Reihenschaltung / Series Circuit</text>
</svg>
