<svg xmlns="http://www.w3.org/2000/svg" viewBox="0 0 500 210" width="500" height="210">
  <style>
    .wire { stroke:#1a1a1a; stroke-width:2.5; fill:none; stroke-linecap:round; }
    .box  { stroke:#1a1a1a; stroke-width:2; fill:#f5f5f5; }
    .lbl  { font-family:sans-serif; font-size:14px; fill:#1a1a1a; text-anchor:middle; dominant-baseline:middle; }
    .sub  { font-family:sans-serif; font-size:11px; fill:#555; text-anchor:middle; }
  </style>
  <!-- Source (left) -->
  <line class="wire" x1="45" y1="30" x2="45" y2="170"/>
  <line x1="30" y1="88" x2="60" y2="88" stroke="#1a1a1a" stroke-width="4"/>
  <line x1="34" y1="100" x2="56" y2="100" stroke="#1a1a1a" stroke-width="2"/>
  <text class="sub" x="45" y="72">+</text>
  <text class="sub" x="45" y="128">−</text>
  <text class="sub" x="68" y="94">U</text>
  <!-- Top wire → R1 -->
  <line class="wire" x1="45" y1="30" x2="110" y2="30"/>
  <!-- R1 (series) -->
  <rect class="box" x="110" y="18" width="80" height="24" rx="2"/>
  <text class="lbl" x="150" y="30">R₁</text>
  <!-- R1 → junction node -->
  <line class="wire" x1="190" y1="30" x2="260" y2="30"/>
  <!-- Junction node top -->
  <circle cx="260" cy="30" r="4" fill="#1a1a1a"/>
  <!-- R2 branch (top) -->
  <line class="wire" x1="260" y1="30" x2="260" y2="65"/>
  <rect class="box" x="225" y="65" width="70" height="40" rx="2"/>
  <text class="lbl" x="260" y="85">R₂</text>
  <line class="wire" x1="260" y1="105" x2="260" y2="140"/>
  <!-- R3 branch (bottom) — runs in parallel with R2 from junction to junction -->
  <line class="wire" x1="260" y1="30" x2="380" y2="30"/>
  <circle cx="380" cy="30" r="4" fill="#1a1a1a"/>
  <line class="wire" x1="380" y1="30" x2="380" y2="65"/>
  <rect class="box" x="345" y="65" width="70" height="40" rx="2"/>
  <text class="lbl" x="380" y="85">R₃</text>
  <line class="wire" x1="380" y1="105" x2="380" y2="140"/>
  <!-- Join bottom of R2 and R3 -->
  <line class="wire" x1="260" y1="140" x2="380" y2="140"/>
  <circle cx="260" cy="140" r="4" fill="#1a1a1a"/>
  <circle cx="380" cy="140" r="4" fill="#1a1a1a"/>
  <!-- Wire from R2/R3 join → right side -->
  <line class="wire" x1="380" y1="140" x2="455" y2="140"/>
  <line class="wire" x1="455" y1="30" x2="455" y2="140"/>
  <line class="wire" x1="380" y1="30" x2="455" y2="30"/>
  <!-- Bottom wire -->
  <line class="wire" x1="45" y1="170" x2="455" y2="170"/>
  <!-- Connect bottom of parallel group to bottom bus -->
  <line class="wire" x1="320" y1="140" x2="320" y2="170"/>
  <!-- Right side down to bottom -->
  <line class="wire" x1="455" y1="140" x2="455" y2="170"/>
  <!-- Label -->
  <text class="sub" x="250" y="195">Gemischte Schaltung / Mixed Circuit  (R₁ in Reihe mit R₂ ‖ R₃)</text>
</svg>
