<svg xmlns="http://www.w3.org/2000/svg" viewBox="0 0 400 200" width="400" height="200">
  <style>
    .wire { stroke:#1a1a1a; stroke-width:2.5; fill:none; stroke-linecap:round; }
    .box  { stroke:#1a1a1a; stroke-width:2; fill:#f5f5f5; }
    .lbl  { font-family:sans-serif; font-size:14px; fill:#1a1a1a; text-anchor:middle; dominant-baseline:middle; }
    .sub  { font-family:sans-serif; font-size:11px; fill:#555; text-anchor:middle; }
  </style>
  <!-- Top bus -->
  <line class="wire" x1="45" y1="30" x2="355" y2="30"/>
  <!-- Bottom bus -->
  <line class="wire" x1="45" y1="160" x2="355" y2="160"/>
  <!-- Source (left) -->
  <line class="wire" x1="45" y1="30" x2="45" y2="160"/>
  <line x1="30" y1="85" x2="60" y2="85" stroke="#1a1a1a" stroke-width="4"/>
  <line x1="34" y1="97" x2="56" y2="97" stroke="#1a1a1a" stroke-width="2"/>
  <text class="sub" x="45" y="68">+</text>
  <text class="sub" x="45" y="120">−</text>
  <text class="sub" x="68" y="91">U</text>
  <!-- R1 branch -->
  <line class="wire" x1="150" y1="30" x2="150" y2="70"/>
  <rect class="box" x="115" y="70" width="70" height="50" rx="2"/>
  <text class="lbl" x="150" y="95">R<tspan dy="5" font-size="10">1</tspan></text>
  <line class="wire" x1="150" y1="120" x2="150" y2="160"/>
  <!-- R2 branch -->
  <line class="wire" x1="260" y1="30" x2="260" y2="70"/>
  <rect class="box" x="225" y="70" width="70" height="50" rx="2"/>
  <text class="lbl" x="260" y="95">R<tspan dy="5" font-size="10">2</tspan></text>
  <line class="wire" x1="260" y1="120" x2="260" y2="160"/>
  <!-- Right side -->
  <line class="wire" x1="355" y1="30" x2="355" y2="160"/>
  <!-- Current arrows -->
  <text class="sub" x="150" y="148">↓ I<tspan dy="3" font-size="8">1</tspan></text>
  <text class="sub" x="260" y="148">↓ I<tspan dy="3" font-size="8">2</tspan></text>
  <!-- Label -->
  <text class="sub" x="200" y="185">Parallelschaltung / Parallel Circuit</text>
</svg>
